<svg width="16" height="16" viewBox="0 0 16 16" fill="none" xmlns="http://www.w3.org/2000/svg">
  <g clip-path="url(#clip0_17_171)">
    <path d="M7.65705 6.24697C7.76706 5.91697 8.23306 5.91697 8.34306 6.24697L8.98805 8.18397C9.13003 8.60977 9.36923 8.99665 9.6867 9.31394C10.0042 9.63124 10.3912 9.87023 10.8171 10.012L12.7531 10.657C13.0831 10.767 13.0831 11.233 12.7531 11.343L10.8161 11.988C10.3903 12.1299 10.0034 12.3691 9.68608 12.6866C9.36878 13.0041 9.12979 13.3911 8.98805 13.817L8.34306 15.753C8.31934 15.8252 8.27341 15.8882 8.21181 15.9328C8.15022 15.9774 8.07611 16.0014 8.00005 16.0014C7.924 16.0014 7.84989 15.9774 7.7883 15.9328C7.7267 15.8882 7.68077 15.8252 7.65705 15.753L7.01205 13.816C6.87018 13.3903 6.63114 13.0035 6.31385 12.6862C5.99656 12.3689 5.60975 12.1298 5.18405 11.988L3.24705 11.343C3.17479 11.3193 3.11187 11.2733 3.06726 11.2117C3.02264 11.1501 2.99862 11.076 2.99862 11C2.99862 10.9239 3.02264 10.8498 3.06726 10.7882C3.11187 10.7266 3.17479 10.6807 3.24705 10.657L5.18405 10.012C5.60975 9.8701 5.99656 9.63105 6.31385 9.31376C6.63114 8.99647 6.87018 8.60966 7.01205 8.18397L7.65705 6.24697ZM3.79405 1.14797C3.80839 1.10466 3.83602 1.06698 3.873 1.04027C3.90998 1.01356 3.95444 0.99918 4.00005 0.99918C4.04567 0.99918 4.09013 1.01356 4.12711 1.04027C4.16409 1.06698 4.19171 1.10466 4.20605 1.14797L4.59305 2.30997C4.76605 2.82797 5.17205 3.23397 5.69005 3.40697L6.85206 3.79397C6.89536 3.80831 6.93305 3.83593 6.95976 3.87291C6.98647 3.90989 7.00084 3.95435 7.00084 3.99997C7.00084 4.04559 6.98647 4.09004 6.95976 4.12702C6.93305 4.164 6.89536 4.19163 6.85206 4.20597L5.69005 4.59297C5.43443 4.67781 5.20214 4.82116 5.01169 5.01161C4.82124 5.20206 4.67789 5.43434 4.59305 5.68997L4.20605 6.85197C4.19171 6.89527 4.16409 6.93296 4.12711 6.95967C4.09013 6.98638 4.04567 7.00075 4.00005 7.00075C3.95444 7.00075 3.90998 6.98638 3.873 6.95967C3.83602 6.93296 3.80839 6.89527 3.79405 6.85197L3.40705 5.68997C3.32222 5.43434 3.17886 5.20206 2.98842 5.01161C2.79797 4.82116 2.56568 4.67781 2.31005 4.59297L1.14805 4.20597C1.10475 4.19163 1.06706 4.164 1.04035 4.12702C1.01364 4.09004 0.999268 4.04559 0.999268 3.99997C0.999268 3.95435 1.01364 3.90989 1.04035 3.87291C1.06706 3.83593 1.10475 3.80831 1.14805 3.79397L2.31005 3.40697C2.56568 3.32213 2.79797 3.17878 2.98842 2.98833C3.17886 2.79788 3.32222 2.56559 3.40705 2.30997L3.79405 1.14797ZM10.8631 0.0989675C10.8729 0.0704938 10.8914 0.0458034 10.916 0.0283291C10.9405 0.0108548 10.9699 0.00146484 11.0001 0.00146484C11.0302 0.00146484 11.0596 0.0108548 11.0841 0.0283291C11.1087 0.0458034 11.1272 0.0704938 11.1371 0.0989675L11.3951 0.872967C11.5101 1.21897 11.7811 1.48997 12.1271 1.60497L12.9011 1.86297C12.9295 1.87284 12.9542 1.89134 12.9717 1.91589C12.9892 1.94044 12.9986 1.96983 12.9986 1.99997C12.9986 2.0301 12.9892 2.05949 12.9717 2.08404C12.9542 2.1086 12.9295 2.1271 12.9011 2.13697L12.1271 2.39497C11.9567 2.45197 11.8019 2.54776 11.6749 2.67478C11.5478 2.80181 11.4521 2.95661 11.3951 3.12697L11.1371 3.90097C11.1272 3.92944 11.1087 3.95413 11.0841 3.97161C11.0596 3.98908 11.0302 3.99847 11.0001 3.99847C10.9699 3.99847 10.9405 3.98908 10.916 3.97161C10.8914 3.95413 10.8729 3.92944 10.8631 3.90097L10.6051 3.12697C10.5481 2.95661 10.4523 2.80181 10.3252 2.67478C10.1982 2.54776 10.0434 2.45197 9.87305 2.39497L9.10005 2.13697C9.07158 2.1271 9.04689 2.1086 9.02942 2.08404C9.01194 2.05949 9.00255 2.0301 9.00255 1.99997C9.00255 1.96983 9.01194 1.94044 9.02942 1.91589C9.04689 1.89134 9.07158 1.87284 9.10005 1.86297L9.87405 1.60497C10.2201 1.48997 10.4911 1.21897 10.6061 0.872967L10.8631 0.0989675Z" fill="white" />
  </g>
  <defs>
    <clipPath id="clip0_17_171">
      <rect width="16" height="16" fill="white" />
    </clipPath>
  </defs>
</svg>